<svg width="76" height="76" viewBox="0 0 76 76" fill="none" xmlns="http://www.w3.org/2000/svg">
<path d="M26.2812 14.5625H48.5469L59.0938 25.1094V54.4062" stroke="#6A6A6A" stroke-width="3.51562" stroke-linecap="round" stroke-linejoin="round"/>
<path d="M16.9062 57.9219V25.1094C16.9062 24.177 17.2766 23.2828 17.936 22.6235C18.5953 21.9641 19.4895 21.5938 20.4219 21.5938H43.2781C43.651 21.5941 44.0084 21.7425 44.2719 22.0063L51.65 29.3844C51.7812 29.5154 51.8852 29.6711 51.9559 29.8424C52.0267 30.0138 52.063 30.1974 52.0625 30.3828V57.9219C52.0625 58.8543 51.6921 59.7485 51.0328 60.4078C50.3735 61.0671 49.4793 61.4375 48.5469 61.4375H20.4219C19.4895 61.4375 18.5953 61.0671 17.936 60.4078C17.2766 59.7485 16.9062 58.8543 16.9062 57.9219Z" stroke="#008837" stroke-width="3.51562" stroke-linecap="round" stroke-linejoin="round"/>
<path d="M42.6875 21.5938V29.5625C42.6875 29.9355 42.8357 30.2931 43.0994 30.5569C43.3631 30.8206 43.7208 30.9688 44.0938 30.9688H52.0625" stroke="#008837" stroke-width="3.51562" stroke-linecap="round" stroke-linejoin="round"/>
</svg>
