<svg width="58" height="58" viewBox="0 0 58 58" fill="none" xmlns="http://www.w3.org/2000/svg">
<g clip-path="url(#clip0_77_353)">
<path d="M53.7344 37.4843C53.7505 37.1142 53.6528 36.748 53.4544 36.4351C53.2561 36.1223 52.9666 35.8777 52.625 35.7343L50 34.953C49.8594 34.578 49.7188 34.203 49.5469 33.8437L50.7656 31.5937C50.9486 31.2491 51.0156 30.8546 50.9564 30.469C50.8973 30.0833 50.7153 29.727 50.4375 29.453L48.2188 27.2499C47.943 26.9746 47.5858 26.7956 47.2002 26.7393C46.8146 26.683 46.4211 26.7525 46.0781 26.9374L43.8125 28.1249C43.4255 27.938 43.0292 27.7711 42.625 27.6249L41.875 25.1562C41.7498 24.7983 41.5146 24.4892 41.2031 24.2731C40.8916 24.057 40.5197 23.945 40.1406 23.953H37.0156C36.6275 23.9527 36.2494 24.077 35.9372 24.3077C35.625 24.5384 35.395 24.8632 35.2813 25.2343L34.5469 27.6405C34.1374 27.7862 33.7358 27.9531 33.3438 28.1405L31.125 26.953C30.7838 26.7718 30.3935 26.7044 30.0112 26.7606C29.629 26.8168 29.2747 26.9938 29 27.2655L26.7344 29.453C26.4531 29.7281 26.2689 30.0873 26.2097 30.4763C26.1505 30.8653 26.2195 31.263 26.4063 31.6093L27.5625 33.6874C27.3818 34.0645 27.2202 34.4504 27.0781 34.8437L24.6094 35.578C24.234 35.6868 23.9043 35.9149 23.6703 36.2279C23.4363 36.5409 23.3107 36.9216 23.3125 37.3124V40.4374C23.3141 40.8255 23.4412 41.2027 23.675 41.5126C23.9088 41.8224 24.2366 42.0482 24.6094 42.1562L27.0938 42.8905C27.2367 43.2732 27.3984 43.6487 27.5781 44.0155L26.3594 46.2968C26.1764 46.6414 26.1095 47.0358 26.1686 47.4215C26.2277 47.8072 26.4097 48.1635 26.6875 48.4374L28.9063 50.6249C29.1802 50.9027 29.5365 51.0847 29.9222 51.1438C30.3079 51.2029 30.7023 51.136 31.0469 50.953L33.3594 49.7343C33.7188 49.9062 34.0938 50.0468 34.4844 50.1874L35.25 52.7187C35.3666 53.0869 35.5977 53.4083 35.9096 53.6359C36.2216 53.8636 36.5982 53.9856 36.9844 53.9843H40.1094C40.4976 53.9846 40.8756 53.8603 41.1878 53.6296C41.5001 53.399 41.73 53.0742 41.8438 52.703L42.5781 50.2343C42.9531 50.1093 43.3125 49.953 43.6719 49.7812L46.0156 51.0155C46.3569 51.1968 46.7471 51.2642 47.1294 51.208C47.5117 51.1517 47.866 50.9748 48.1406 50.703L50.3594 48.5155C50.6407 48.2405 50.8249 47.8813 50.8841 47.4923C50.9433 47.1033 50.8743 46.7056 50.6875 46.3593L49.4531 44.0937C49.6198 43.7395 49.7709 43.3801 49.9063 43.0155L52.4375 42.2812C52.8129 42.1724 53.1426 41.9443 53.3766 41.6313C53.6106 41.3183 53.7362 40.9376 53.7344 40.5468V37.4843ZM51.2344 40.0312L47.9375 40.9999L47.75 41.6562C47.5572 42.3023 47.2953 42.9256 46.9688 43.5155L46.6406 44.1093L48.2031 47.0937L46.6406 48.6562L43.5156 47.0937L42.9375 47.4062C42.341 47.7262 41.7126 47.9828 41.0625 48.1718L40.4063 48.3593L39.4219 51.6249H37.4688L36.4844 48.3749L35.8281 48.1874C35.1728 47.9995 34.539 47.7428 33.9375 47.4218L33.3594 47.1093L30.3281 48.6718L28.7656 47.1093L30.3281 44.078L29.9844 43.4843C29.6709 42.852 29.4298 42.1863 29.2656 41.4999L29 40.9218L25.875 39.9374V37.8905L29 36.9374L29.2031 36.2968C29.4066 35.6273 29.6844 34.9826 30.0313 34.3749L30.4063 33.6874L28.8438 30.7968L30.4063 29.328L33.3594 30.8905L33.9531 30.5624C34.5775 30.2201 35.2378 29.9476 35.9219 29.7499L36.5625 29.5624L37.5469 26.4374H39.7031L40.6719 29.5624L41.3125 29.7499C41.9752 29.9518 42.6142 30.2242 43.2188 30.5624L43.8125 30.8905L46.8125 29.328L48.375 30.8905L46.8125 33.8437L47.1406 34.4374C47.4692 35.0372 47.7312 35.6712 47.9219 36.328L48.1094 36.9843L51.3281 37.9374L51.2344 40.0312Z" fill="#6A6A6A"/>
<path d="M38.5625 32.672C37.332 32.6966 36.1361 33.0839 35.1249 33.7855C34.1137 34.487 33.3321 35.4715 32.8781 36.6155C32.4242 37.7595 32.3181 39.0121 32.5732 40.2161C32.8283 41.4201 33.4332 42.522 34.3121 43.3837C35.1909 44.2453 36.3046 44.8282 37.5134 45.0594C38.7223 45.2906 39.9725 45.1598 41.1073 44.6833C42.242 44.2068 43.2109 43.4059 43.8922 42.3809C44.5736 41.356 44.9373 40.1527 44.9375 38.922C44.9128 37.2504 44.2293 35.6561 43.0355 34.4857C41.8418 33.3154 40.2343 32.6635 38.5625 32.672ZM38.5625 42.7657C37.8151 42.7503 37.0888 42.5146 36.4748 42.0882C35.8608 41.6617 35.3863 41.0635 35.1108 40.3685C34.8354 39.6735 34.7713 38.9127 34.9265 38.1814C35.0817 37.4501 35.4493 36.7809 35.9833 36.2576C36.5173 35.7344 37.1938 35.3805 37.9282 35.2402C38.6625 35.0999 39.4218 35.1795 40.1111 35.4691C40.8003 35.7586 41.3888 36.2452 41.8026 36.8677C42.2165 37.4903 42.4373 38.2212 42.4375 38.9688C42.4334 39.4736 42.3299 39.9726 42.133 40.4374C41.936 40.9022 41.6495 41.3236 41.2896 41.6777C40.9298 42.0317 40.5038 42.3114 40.0358 42.5007C39.5679 42.6901 39.0673 42.7854 38.5625 42.7813V42.7657Z" fill="#6A6A6A"/>
<path d="M23.5156 49.3125H10.25V8.6875H41.5V21.0156C42.182 21.2157 42.8134 21.559 43.3523 22.0224C43.8912 22.4858 44.325 23.0588 44.625 23.7031V8.6875C44.625 7.8587 44.2958 7.06384 43.7097 6.47779C43.1237 5.89174 42.3288 5.5625 41.5 5.5625H10.25C9.4212 5.5625 8.62634 5.89174 8.04029 6.47779C7.45424 7.06384 7.125 7.8587 7.125 8.6875V49.3125C7.125 50.1413 7.45424 50.9362 8.04029 51.5222C8.62634 52.1083 9.4212 52.4375 10.25 52.4375H26.2344L24.5156 50.75C24.0977 50.3356 23.7589 49.8484 23.5156 49.3125Z" fill="#008837"/>
</g>
<defs>
<clipPath id="clip0_77_353">
<rect width="56.25" height="56.25" fill="white" transform="translate(0.875 0.875)"/>
</clipPath>
</defs>
</svg>
