<svg width="64" height="64" viewBox="0 0 64 64" fill="none" xmlns="http://www.w3.org/2000/svg">
<path d="M56 28H54V14C54 11.8 52.2 10 50 10H38V14H50V28H48C45.8 28 44 29.8 44 32V50H19.8C19 47.2 16.8 45 14 44.2V14H26.4L21.2 19.2L24 22L34 12L24 2L21.2 4.8L26.4 10H14C11.8 10 10 11.8 10 14V44.2C6.6 45 4 48.2 4 52C4 56.4 7.6 60 12 60C15.8 60 18.8 57.4 19.8 54H44V56C44 58.2 45.8 60 48 60H56C58.2 60 60 58.2 60 56V32C60 29.8 58.2 28 56 28ZM12 56C9.8 56 8 54.2 8 52C8 49.8 9.8 48 12 48C14.2 48 16 49.8 16 52C16 54.2 14.2 56 12 56ZM48 56V32H56V56H48Z" fill="#6A6A6A"/>
<path d="M12 44C16.4183 44 20 47.5817 20 52C20 56.4183 16.4183 60 12 60C7.58172 60 4 56.4183 4 52C4 47.5817 7.58172 44 12 44ZM12 48C9.79086 48 8 49.7909 8 52C8 54.2091 9.79086 56 12 56C14.2091 56 16 54.2091 16 52C16 49.7909 14.2091 48 12 48Z" fill="#008837"/>
<path d="M56 28C58.2091 28 60 29.7909 60 32V56C60 58.2091 58.2091 60 56 60H48C45.7909 60 44 58.2091 44 56V32C44 29.7909 45.7909 28 48 28H56ZM48 32.5V55.5H56V32.5H48Z" fill="#008837"/>
</svg>
