<svg width="58" height="58" viewBox="0 0 58 58" fill="none" xmlns="http://www.w3.org/2000/svg">
<path d="M49.584 50.6105C49.3669 50.3441 49.1806 50.054 49.0285 49.7457C48.554 48.7582 48.3169 47.6735 48.3359 46.5781C48.3359 45.1227 48.698 44.0715 49.0285 43.4105C49.1806 43.1023 49.3669 42.8122 49.584 42.5457L49.5945 42.5281C49.9137 42.2008 50.0928 41.7619 50.0938 41.3047V2.63281C50.0938 2.16661 49.9086 1.71951 49.5789 1.38985C49.2492 1.0602 48.8021 0.875 48.3359 0.875H13.0426L12.7508 0.892578C11.4042 0.990605 10.089 1.34626 8.87656 1.94023C7.62866 2.54872 6.56199 3.47357 5.78281 4.62266C4.91094 5.9375 4.39062 7.60039 4.39062 9.66406V46.5781C4.39062 48.2059 4.80195 49.5418 5.50859 50.6035C6.21172 51.6512 7.13281 52.3297 7.99766 52.7656C9.0267 53.2786 10.1533 53.5663 11.3023 53.6094H11.4219V50.0938L11.3199 50.0867C10.711 50.0493 10.1157 49.8903 9.56914 49.6191C9.11052 49.4049 8.71821 49.0709 8.43359 48.6523C8.15234 48.2305 7.90625 47.5871 7.90625 46.5781C7.90625 45.5691 8.15234 44.9258 8.43359 44.5039C8.71918 44.0848 9.11275 43.7508 9.57266 43.5371C10.1488 43.2505 10.7789 43.0888 11.4219 43.0625H45.3758C45.0559 44.0117 44.8203 45.1895 44.8203 46.5781C44.8203 47.9668 45.0559 49.1445 45.3758 50.0938H29V53.6094H48.3359C48.6813 53.6094 49.0189 53.5076 49.3068 53.3169C49.5947 53.1262 49.82 52.8549 49.9546 52.5368C50.0892 52.2188 50.1272 51.8682 50.0638 51.5288C50.0004 51.1893 49.8384 50.8761 49.598 50.6281L49.584 50.6105ZM10.4516 5.0832C10.7797 4.92383 11.1031 4.79492 11.4219 4.69648C11.4219 11.1336 11.4254 39.5469 11.4184 39.5469H11.3023C10.9686 39.5584 10.6361 39.5936 10.3074 39.6523C9.50477 39.7809 8.72609 40.0298 7.99766 40.3906L7.90625 40.4398V9.66406C7.90625 8.21211 8.26484 7.2418 8.71133 6.57383C9.16133 5.89531 9.78008 5.4207 10.4516 5.0832ZM14.9375 39.5469V4.39062H46.5781V39.5469H14.9375Z" fill="#6A6A6A"/>
<path d="M25.4844 46.5781H14.9375V55.3672C14.9369 55.7153 15.0396 56.0558 15.2327 56.3454C15.4259 56.6351 15.7006 56.8609 16.0222 56.9942C16.3438 57.1275 16.6977 57.1623 17.0391 57.0942C17.3805 57.0261 17.694 56.8582 17.9398 56.6117L20.2109 54.3371L22.482 56.6117C22.7279 56.8582 23.0414 57.0261 23.3828 57.0942C23.7242 57.1623 24.0781 57.1275 24.3997 56.9942C24.7213 56.8609 24.996 56.6351 25.1891 56.3454C25.3822 56.0558 25.485 55.7153 25.4844 55.3672V46.5781Z" fill="#008837"/>
</svg>
