<svg width="76" height="76" viewBox="0 0 76 76" fill="none" xmlns="http://www.w3.org/2000/svg">
<path d="M48.3506 31.8477L34.2881 22.4727C34.0232 22.2959 33.7153 22.1945 33.3972 22.1791C33.0791 22.1638 32.7629 22.2351 32.4822 22.3855C32.2015 22.536 31.967 22.7598 31.8036 23.0331C31.6403 23.3065 31.5542 23.6191 31.5547 23.9375V42.6875C31.5542 43.0059 31.6403 43.3185 31.8036 43.5919C31.967 43.8652 32.2015 44.089 32.4822 44.2395C32.7629 44.3899 33.0791 44.4612 33.3972 44.4459C33.7153 44.4305 34.0232 44.3291 34.2881 44.1523L48.3506 34.7773C48.5923 34.617 48.7906 34.3993 48.9278 34.1437C49.0649 33.8881 49.1367 33.6026 49.1367 33.3125C49.1367 33.0224 49.0649 32.7369 48.9278 32.4813C48.7906 32.2257 48.5923 32.008 48.3506 31.8477ZM35.0703 39.4033V27.2217L44.2051 33.3125L35.0703 39.4033ZM63.7812 12.8047H12.2188C11.1309 12.8047 10.0877 13.2368 9.31851 14.006C8.54932 14.7752 8.11719 15.8184 8.11719 16.9062V49.7188C8.11719 50.8066 8.54932 51.8498 9.31851 52.619C10.0877 53.3882 11.1309 53.8203 12.2188 53.8203H63.7812C64.8691 53.8203 65.9123 53.3882 66.6815 52.619C67.4507 51.8498 67.8828 50.8066 67.8828 49.7188V16.9062C67.8828 15.8184 67.4507 14.7752 66.6815 14.006C65.9123 13.2368 64.8691 12.8047 63.7812 12.8047ZM64.3672 49.7188C64.3672 49.8741 64.3055 50.0232 64.1956 50.1331C64.0857 50.243 63.9366 50.3047 63.7812 50.3047H12.2188C12.0633 50.3047 11.9143 50.243 11.8044 50.1331C11.6945 50.0232 11.6328 49.8741 11.6328 49.7188V16.9062C11.6328 16.7508 11.6945 16.6018 11.8044 16.4919C11.9143 16.382 12.0633 16.3203 12.2188 16.3203H63.7812C63.9366 16.3203 64.0857 16.382 64.1956 16.4919C64.3055 16.6018 64.3672 16.7508 64.3672 16.9062V49.7188ZM67.8828 61.4375C67.8828 61.9037 67.6976 62.3508 67.368 62.6805C67.0383 63.0101 66.5912 63.1953 66.125 63.1953H9.875C9.4088 63.1953 8.96169 63.0101 8.63204 62.6805C8.30238 62.3508 8.11719 61.9037 8.11719 61.4375C8.11719 60.9713 8.30238 60.5242 8.63204 60.1945C8.96169 59.8649 9.4088 59.6797 9.875 59.6797H66.125C66.5912 59.6797 67.0383 59.8649 67.368 60.1945C67.6976 60.5242 67.8828 60.9713 67.8828 61.4375Z" fill="#008837"/>
<path d="M63.7812 12.8047H12.2188C11.1309 12.8047 10.0877 13.2368 9.31851 14.006C8.54932 14.7752 8.11719 15.8184 8.11719 16.9062V49.7188C8.11719 50.8066 8.54932 51.8498 9.31851 52.619C10.0877 53.3882 11.1309 53.8203 12.2188 53.8203H63.7812C64.8691 53.8203 65.9123 53.3882 66.6815 52.619C67.4507 51.8498 67.8828 50.8066 67.8828 49.7188V16.9062C67.8828 15.8184 67.4507 14.7752 66.6815 14.006C65.9123 13.2368 64.8691 12.8047 63.7812 12.8047ZM64.3672 49.7188C64.3672 49.8741 64.3055 50.0232 64.1956 50.1331C64.0857 50.243 63.9366 50.3047 63.7812 50.3047H12.2188C12.0633 50.3047 11.9143 50.243 11.8044 50.1331C11.6945 50.0232 11.6328 49.8741 11.6328 49.7188V16.9062C11.6328 16.7508 11.6945 16.6018 11.8044 16.4919C11.9143 16.382 12.0633 16.3203 12.2188 16.3203H63.7812C63.9366 16.3203 64.0857 16.382 64.1956 16.4919C64.3055 16.6018 64.3672 16.7508 64.3672 16.9062V49.7188ZM67.8828 61.4375C67.8828 61.9037 67.6976 62.3508 67.368 62.6805C67.0383 63.0101 66.5912 63.1953 66.125 63.1953H9.875C9.4088 63.1953 8.96169 63.0101 8.63204 62.6805C8.30238 62.3508 8.11719 61.9037 8.11719 61.4375C8.11719 60.9713 8.30238 60.5242 8.63204 60.1945C8.96169 59.8649 9.4088 59.6797 9.875 59.6797H66.125C66.5912 59.6797 67.0383 59.8649 67.368 60.1945C67.6976 60.5242 67.8828 60.9713 67.8828 61.4375Z" fill="#6A6A6A"/>
</svg>
