<svg width="66" height="66" viewBox="0 0 66 66" fill="none" xmlns="http://www.w3.org/2000/svg">
<path fill-rule="evenodd" clip-rule="evenodd" d="M33 1.26709L32.532 2.07959L27.9995 9.91989H31.375V37.8569L7.18005 51.8254L5.492 48.9017L0.5 57.559H1.43665L10.4937 57.5642L8.80505 54.6405L33 40.672L57.1949 54.6405L55.5062 57.5642L65.5 57.559L65.032 56.7465L60.508 48.9017L58.8199 51.826L34.625 37.8575V9.91924H38.0005L33 1.26709Z" fill="#6A6A6A"/>
<path d="M15.4141 50.2974L31.5752 61.0015V45.7251L15.4141 35.02V50.2974ZM34.4258 45.7222V60.9995L50.5859 50.2974V35.021L34.4258 45.7222ZM16.7021 32.4624L32.9873 43.2437L49.1348 32.3628L33 21.6714L16.7021 32.4624ZM53.4355 51.0933C53.4355 51.3374 53.3733 51.5776 53.2539 51.7905C53.1356 52.0014 52.9644 52.1781 52.7588 52.3052L33.7588 64.7651L33.7578 64.7642C33.3632 65.0345 32.7988 65.0712 32.2686 64.7817C32.2627 64.7786 32.2565 64.7756 32.251 64.772L13.2412 52.3062V52.3052C12.8207 52.0452 12.5646 51.5868 12.5645 51.0933V32.4575L12.5752 32.3071C12.6172 31.9523 12.7874 31.5783 13.2314 31.2573L13.2412 31.2505L32.251 18.7837L32.3105 18.7554C32.6944 18.631 33.1207 18.4782 33.6328 18.7222L33.7363 18.7759L33.75 18.7837L52.7412 31.2378L52.748 31.2427C52.9439 31.3803 53.1196 31.533 53.2441 31.7339C53.3713 31.939 53.4332 32.1756 53.4355 32.4614V51.0933Z" fill="#008837" stroke="#008837" stroke-width="0.5" stroke-linejoin="round"/>
</svg>
